<?xml version="1.0" standalone="no"?>
<!DOCTYPE svg PUBLIC "-//W3C//DTD SVG 1.1//EN" "http://www.w3.org/Graphics/SVG/1.1/DTD/svg11.dtd" >
<svg xmlns="http://www.w3.org/2000/svg">
<metadata>
Created by FontForge 20120731 at Fri Nov 11 11:30:54 2016
 By admin
</metadata>
<defs>
<font id="iconfont" horiz-adv-x="1024" >
  <font-face 
    font-family="iconfont"
    font-weight="500"
    font-stretch="normal"
    units-per-em="1024"
    panose-1="2 0 6 3 0 0 0 0 0 0"
    ascent="896"
    descent="-128"
    x-height="792"
    bbox="-57 -155 1025 896"
    underline-thickness="0"
    underline-position="0"
    unicode-range="U+0078-F01B0"
  />
<missing-glyph 
 />
    <glyph glyph-name=".notdef" 
 />
    <glyph glyph-name=".null" horiz-adv-x="0" 
 />
    <glyph glyph-name="nonmarkingreturn" horiz-adv-x="341" 
 />
    <glyph glyph-name="x" unicode="x" horiz-adv-x="1001" 
d="M281 543q-27 -1 -53 -1h-83q-18 0 -36.5 -6t-32.5 -18.5t-23 -32t-9 -45.5v-76h912v41q0 16 -0.5 30t-0.5 18q0 13 -5 29t-17 29.5t-31.5 22.5t-49.5 9h-133v-97h-438v97zM955 310v-52q0 -23 0.5 -52t0.5 -58t-10.5 -47.5t-26 -30t-33 -16t-31.5 -4.5q-14 -1 -29.5 -0.5
t-29.5 0.5h-32l-45 128h-439l-44 -128h-29h-34q-20 0 -45 1q-25 0 -41 9.5t-25.5 23t-13.5 29.5t-4 30v167h911zM163 247q-12 0 -21 -8.5t-9 -21.5t9 -21.5t21 -8.5q13 0 22 8.5t9 21.5t-9 21.5t-22 8.5zM316 123q-8 -26 -14 -48q-5 -19 -10.5 -37t-7.5 -25t-3 -15t1 -14.5
t9.5 -10.5t21.5 -4h37h67h81h80h64h36q23 0 34 12t2 38q-5 13 -9.5 30.5t-9.5 34.5q-5 19 -11 39h-368zM336 498v228q0 11 2.5 23t10 21.5t20.5 15.5t34 6h188q31 0 51.5 -14.5t20.5 -52.5v-227h-327z" />
    <glyph glyph-name="tengxunweibo" unicode="&#xf01b0;" 
d="M517 891q92 0 172.5 -35t140.5 -95t94.5 -140t34.5 -171q0 -93 -34.5 -173t-94.5 -140t-140.5 -95t-172.5 -35h-13q-6 0 -12 1h-5q-15 2 -25.5 14t-10.5 28q0 18 12 30t30 12q4 0 12 -2l1 1h11q74 0 139.5 28t114 77t77 114.5t28.5 139t-28.5 139t-77 114t-114 76.5
t-139.5 28t-139.5 -28t-113.5 -76.5t-76 -114t-28 -138.5q0 -76 29 -144q7 -9 7 -22q0 -18 -12.5 -30t-29.5 -12q-12 0 -20.5 4.5t-14.5 12.5q-21 43 -32 90.5t-11 100.5q0 91 34.5 171t94.5 140t140.5 95t171.5 35zM722 450q0 -42 -16 -79.5t-43.5 -65t-65 -44t-80.5 -16.5
q-35 0 -66 10.5t-57 31.5q-11 -14 -28.5 -34t-37 -44.5t-40 -51.5t-37.5 -54q-26 -38 -48 -78.5t-38 -74.5q-20 -40 -36 -78l-105 4q15 44 37 92q20 41 48 91.5t67 100.5q22 27 45.5 55t46 52.5t42 44.5t32.5 33q-29 48 -29 105q0 42 16 79t43.5 65t65 43.5t79.5 15.5
q43 0 80.5 -15.5t65 -43.5t43.5 -65t16 -79z" />
    <glyph glyph-name="sousuo" unicode="&#xf004c;" 
d="M938 -27l-214 216q-2 2 -8 7q57 89 57 194q0 98 -47.5 180t-129 130t-178 48t-178 -48t-129 -130t-47.5 -179.5t47.5 -179.5t129 -130t178.5 -48q104 0 193 58q4 -6 6 -8l214 -216q22 -22 53 -22t53 22t22 53t-22 53zM419 146q-101 0 -172 71.5t-71 173t71 173
t171.5 71.5t171.5 -71.5t71 -173t-71 -173t-171 -71.5v0z" />
    <glyph glyph-name="17" unicode="&#xf0021;" 
d="M899 281v4v0q-3 107 -34.5 189t-85 132t-121 75t-146.5 25q-78 0 -146 -25.5t-121 -75.5t-85 -132t-34 -188h-1q0 -2 1 -4q-1 -8 -1 -15h1q8 -105 61 -191.5t139 -136.5t186 -50t186 50t139 136.5t61 191.5h1v15zM493 190q4 -16 10.5 -23.5t20.5 -7.5h58q21 0 21 -20
v-137q0 -23 -23 -23h-52l-16 3q-59 26 -91.5 101.5t-35.5 191.5q3 118 34 211.5t83 122.5q6 3 11 4q3 2 9.5 2.5t12.5 0.5h5h40q23 0 23 -24v-136q0 -21 -21 -21h-42h-3h-13q-14 0 -20.5 -7.5t-10.5 -23.5q-4 -14 -8 -119h-1v-9v-10h1q3 -60 8 -76z" />
    <glyph glyph-name="youxiang" unicode="&#xe665;" 
d="M869 633h-720q-35 0 -59 -24.5t-24 -59.5v-498q0 -35 24 -59.5t59 -24.5h720q35 0 59 24.5t24 59.5v498q0 35 -24 59.5t-59 24.5zM141 23l-20 20l229 229l20 -20zM876 23l-228 229l20 20l229 -229zM537 208v-19h-56v19l-360 334l35 35l353 -327l353 327l35 -35z" />
    <glyph glyph-name="unie61d" unicode="&#xe60a;" 
d="M-57 853v0v0zM743 324q-16 4 -21 10.5t-2 11.5l3 6q2 1 3 3.5t4 9.5t5 14t3 17.5t-0.5 20t-6.5 20.5t-14 20q-16 15 -40.5 19.5t-49.5 0.5t-47 -10t-36 -11l-15 -7q-11 -3 -18 -4t-11 0.5t-6 3t-1.5 7.5t1 10.5t2.5 14t3 15.5q0 13 -1.5 24.5t-7 26t-16 23t-26.5 14
t-41.5 3.5t-57.5 -13q-38 -13 -78 -39t-69 -54.5t-53.5 -54.5t-37.5 -43l-12 -18q-36 -47 -54 -94.5t-17 -71.5v-23q7 -53 33 -95t62 -68t84.5 -44.5t93 -26.5t94.5 -11q81 -7 169 12.5t163.5 66.5t106.5 114q19 38 19.5 72.5t-12 56t-31.5 38t-36 24t-31 9.5v0zM407 -19
q-119 -5 -202.5 46.5t-83.5 131.5q0 78 83 135t203 62.5t203 -40t83 -123.5q0 -79 -84.5 -142.5t-201.5 -69.5v0zM375 287q-32 -3 -57.5 -15t-40 -26.5t-24.5 -32t-13.5 -34t-4.5 -30t-1 -21.5l1 -9v-4q0 -3 2 -13t6 -18.5t12.5 -18.5t21.5 -16q72 -36 135 -22t102 64
q15 18 20 46t-2 56t-24.5 51t-52.5 35.5t-80 7.5v0zM335 78q-7 -1 -13 -0.5t-11 2.5t-9.5 4t-8 6t-6.5 7.5t-4.5 9t-1.5 10.5q0 12 6.5 23.5t18 20t26.5 9.5q10 1 19.5 -0.5t16 -5.5t11.5 -9t7 -11.5t2 -14.5q0 -12 -7 -23t-19.5 -18.5t-26.5 -9.5v0zM429 158
q-8 -6 -16 -5.5t-12 7.5l-2 4q-1 3 -1 5v4q0 4 1 6l2 4q1 2 4 3l3 5q9 7 17 5.5t12 -8.5q3 -5 2.5 -10.5t-3.5 -10.5t-7 -9v0zM821 388q6 0 11.5 3.5t9 8.5t4.5 10q1 2 1 4q13 126 -88 143q-30 6 -55 1q-8 0 -13.5 -3.5t-9.5 -10t-4 -12.5q0 -11 8 -19t19 -8q86 20 92 -55
q2 -19 -2 -35q0 -11 8 -19t19 -8v0zM802 700q-49 11 -130 -5q-1 0 -3 -1l-1 -2l-1 -1q-12 -4 -19.5 -14.5t-7.5 -22.5q0 -16 11 -27t26 -11h3q2 0 5.5 1t8 1.5t9.5 2t9 3.5t15 2t27 -2t35 -8.5t38.5 -16.5t39 -27.5t33.5 -40.5q29 -65 11 -126q0 -1 -0.5 -2t-1.5 -5.5
t-2 -8.5l-2.5 -10t-1.5 -10q0 -10 5.5 -17t14 -9.5t19.5 -2.5q31 0 36 37q14 43 15.5 82.5t-5.5 69t-21.5 55.5t-33.5 44.5t-42 33t-44.5 23.5t-44.5 15v0z" />
    <glyph glyph-name="zuojiantou" unicode="&#xe60c;" 
d="M261 366l371 371q23 22 54.5 22t54.5 -22v0q22 -23 22 -54.5t-22 -54.5v0l-317 -316l317 -317q22 -23 22 -54.5t-22 -54.5v0q-23 -22 -54.5 -22t-54.5 22v0l-371 371q-22 23 -22 55v0q0 31 22 54v0z" />
    <glyph glyph-name="fanhuidingbu" unicode="&#xe622;" 
d="M915 585h-806q-19 0 -32 -13t-13 -31.5t13 -32t32 -13.5h806q19 0 32 13.5t13 32t-13 31.5t-32 13zM544 345q-13 13 -32 13t-32 -13l-380 -380q-13 -13 -13 -32t13 -32t31.5 -13t32.5 13l348 349q348 -348 348 -349q13 -13 32 -13t32 13t13 32t-13 32z" />
    <glyph glyph-name="lianxiwomen" unicode="&#xe61d;" 
d="M916 381q-18 151 -133.5 253.5t-271 102.5t-271 -102.5t-133.5 -253.5q-19 -10 -30.5 -28t-11.5 -40v-115q0 -32 23 -55t55 -23h10q15 0 22 0.5t17.5 2t15.5 5.5t8.5 12t3.5 19v154q0 39 -34 63q16 121 108.5 202.5t217 81.5t217 -81.5t108.5 -202.5q-35 -24 -35 -63
v-115q0 -4 4 -19q-48 -106 -138 -165q-24 29 -60 29q-32 0 -54.5 -22.5t-22.5 -54.5t22.5 -54.5t55 -22.5t55 22.5t22.5 54.5v0.5v0.5q110 52 174 157q15 -4 20 -4q32 0 55 23t23 55v115q0 22 -11.5 40t-30.5 28z" />
    <glyph glyph-name="place" unicode="&#xe603;" 
d="M514.5 756q-117.5 0 -200.5 -82t-83 -198q0 -43 29.5 -106t71 -122.5t83 -112.5t71 -86t29.5 -32q11 12 30 33.5t68 82.5t86 115.5t68 119.5t31 108q0 116 -83 198t-200.5 82zM514.5 337q-56.5 0 -96 39.5t-39.5 96t39.5 96t96 39.5t96 -39.5t39.5 -96t-39.5 -96
t-96 -39.5z" />
    <glyph glyph-name="zhuanyejinengg2" unicode="&#xe67a;" 
d="M510 801q-91 0 -174 -35.5t-142.5 -95.5t-95 -143t-35.5 -174q0 -119 57.5 -220t155.5 -161v0v63v0h469v-63v0v0q98 60 155.5 161t57.5 220q0 91 -35.5 174t-95.5 143t-143 95.5t-174 35.5zM750 69h-240h-239l-100 387q1 3 2 8.5t7 17t13.5 18.5t22 7.5t32.5 -11.5
l114 -163q1 0 3.5 -1.5t9 -3t12 -0.5t11.5 6t9 14l64 205q2 3 5.5 7.5t13.5 11.5t20 6q10 1 20 -5t15 -13l5 -7l64 -205q4 -15 15.5 -19t20.5 0l9 4l114 163q18 12 32.5 12t22 -7.5t13 -18.5t7 -18t1.5 -8z" />
    <glyph glyph-name="wangluo" unicode="&#xe60b;" 
d="M871 536q-30 69 -84 123t-123 84q-73 30 -152 30t-152 -30q-69 -30 -123 -84q-21 -20 -38 -44q-1 -1 -2 -1q-26 -37 -44 -78q-30 -73 -30 -152t30 -152q30 -69 84 -123t123 -84q73 -30 152 -30t152 30q69 30 123 84t84 123q30 73 30 152t-30 152zM805 196q-41 21 -96 35
q15 63 16 133h135q-5 -92 -55 -168zM164 364h134q2 -70 17 -133q-55 -14 -96 -35q-50 76 -55 168zM221 576q41 -21 95 -35q-16 -65 -18 -137h-134q6 94 57 172zM492 404h-153q2 67 17 128q64 -13 136 -15v-113zM492 364v-109q-72 -2 -137 -15q-14 59 -16 124h153zM532 364
h153q-2 -65 -16 -124q-65 13 -137 15v109zM532 404v113q72 2 136 15q15 -61 17 -128h-153zM532 558v172q22 -6 42 -22q32 -25 57 -73q15 -29 26 -64q-59 -11 -125 -13zM450 708q20 16 42 22v-172q-66 2 -125 13q11 35 26 64q25 48 57 73zM492 214v-176q-22 6 -42 22
q-32 25 -57 73q-16 31 -27 68q60 11 126 13zM574 60q-20 -16 -42 -22v176q66 -2 126 -13q-11 -37 -27 -68q-25 -48 -57 -73zM725 404q-2 72 -17 137q54 14 95 35q51 -78 57 -172h-135zM758 630q11 -10 20 -21q-35 -17 -81 -29q-12 41 -30 74q-18 34 -39 59q74 -26 130 -83z
M396 713q-21 -25 -39 -59q-18 -33 -30 -74q-46 12 -81 29q9 11 20 21q56 57 130 83zM266 138q-12 11 -23 24q36 18 82 30q14 -43 32 -78q18 -34 39 -59q-74 26 -130 83zM628 55q21 25 39 59q18 35 31 78q47 -12 83 -30q-11 -13 -23 -24q-56 -57 -130 -83z" />
    <glyph glyph-name="comiisxiangji" unicode="&#xe657;" 
d="M874 681h-100q-13 29 -18 40q-13 25 -23 34.5t-32 9.5h-375q-23 0 -35.5 -11.5t-25.5 -45.5q-4 -10 -12 -27h-103q-43 0 -73.5 -30.5t-30.5 -72.5v-472q0 -42 30.5 -72.5t73.5 -30.5h724q43 0 73.5 30.5t30.5 72.5v472q0 42 -30.5 72.5t-73.5 30.5zM84 578q0 27 19.5 46
t46.5 19h111q16 0 21.5 13t12.5 29q2 4 6 14q0 2 1 4q10 24 24 24h374q12 0 19 -17l1 -1q7 -17 9 -21q13 -29 14 -32q6 -13 19 -13h112q27 0 46.5 -19t19.5 -46v-472q0 -27 -19.5 -46t-46.5 -19h-724q-27 0 -46.5 19t-19.5 46v472v0zM512 130q88 0 150 62t62 149.5
t-62 149.5t-150 62t-150 -62t-62 -149.5t62 -149.5t150 -62zM512 517q72 0 123.5 -51.5t51.5 -124t-51.5 -123.5t-123.5 -51t-123.5 51t-51.5 123.5t51.5 124t123.5 51.5zM785 515h47q8 0 13.5 6t5.5 13.5t-5.5 13t-13.5 5.5h-47q-8 0 -13.5 -5.5t-5.5 -13t5.5 -13.5
t13.5 -6z" />
    <glyph glyph-name="jiaoyubeijing" unicode="&#xe63c;" 
d="M1024 507l-516 246l-508 -252l229 -113v-266l11 -9q6 -4 15.5 -10.5t37.5 -22t58 -27t73.5 -22t86.5 -11.5h9q42 0 83.5 9.5t68.5 21.5t52 27t33.5 22t13.5 11l9 9v265zM508 688l384 -182l-384 -192l-377 187zM722 146q-19 -14 -42.5 -27.5t-71.5 -27.5t-96 -13
q-118 3 -225 74v207l221 -110l214 107v-210zM36 350h58v-221h-58v221zM702 539l-149 72l-13 -26l149 -72zM736 521l29 -15l-13 -26l-29 15z" />
    <glyph glyph-name="shenghuoxingqu" unicode="&#xe6c8;" 
d="M747 499q-44 0 -75 -31q-20 33 -59 33h-373q-29 0 -49 -20t-20 -48v-183v0q2 -55 34 -101.5t86 -75.5q-1 -3 -1 -7v-7q0 -7 5 -12.5t13 -5.5h237q7 0 12.5 5.5t5.5 12.5v7q0 4 -1 7q53 29 85.5 75.5t33.5 101.5v0v5v0v0v56q29 -23 66 -23q44 0 75 31t31 74.5t-31 74.5
t-75 31zM572 143q-28 -23 -65 -36q-38 -14 -80.5 -14t-81.5 14q-36 13 -64 36q-56 48 -56 113v0v171q0 9 6 15.5t15 6.5h360q9 0 15.5 -6.5t6.5 -15.5v-171q0 -65 -56 -113zM747 333q-25 0 -42.5 18t-17.5 42.5t17.5 42.5t42.5 18t42.5 -18t17.5 -42.5t-17.5 -42.5
t-42.5 -18zM283 564q-6 -7 -6 -16.5t6.5 -16t16 -6.5t15.5 7q26 25 25 60q0 35 -25 60q-12 12 -12 28.5t12 28.5q6 7 6 16.5t-6.5 16t-16 6.5t-15.5 -7q-26 -25 -26 -60.5t26 -60.5q12 -12 12 -28t-12 -28zM413 564q-7 -7 -7 -16.5t7 -16t16 -6.5t16 7q25 25 25 60t-25 60
q-12 12 -12 28.5t12 28.5q6 7 6 16.5t-6.5 16t-16 6.5t-16.5 -7q-25 -25 -25 -60.5t25 -60.5q12 -12 12.5 -28t-11.5 -28zM543 564q-7 -7 -7 -16.5t6.5 -16t16 -6.5t16.5 7q25 25 25 60q-1 35 -26 60q-12 12 -12 28.5t12 28.5q7 7 7 16.5t-6.5 16t-16 6.5t-16.5 -7
q-25 -25 -25 -60.5t25 -60.5q12 -12 12 -28t-11 -28z" />
    <glyph glyph-name="a103" unicode="&#xe623;" horiz-adv-x="1045" 
d="M794 34h-544q-37 0 -63.5 27t-26.5 64v544q0 38 26.5 64.5t63.5 26.5h544q38 0 64.5 -26.5t26.5 -64.5v-544q0 -37 -26.5 -64t-64.5 -27zM855 140v514q0 31 -22.5 53t-53.5 22h-514q-31 0 -53 -22t-22 -53v-514q0 -31 22 -53t53 -22h514q31 0 53.5 22t22.5 53zM706 374
h-272q-11 0 -17 6.5t-6 16.5t6 16.5t17 6.5h272q10 0 16 -6.5t6 -16.5t-6 -16.5t-16 -6.5v0v0zM706 510h-272q-11 0 -17 6.5t-6 16.5t6 16.5t17 6.5h272q10 0 16 -6.5t6 -16.5t-6 -16.5t-16 -6.5v0v0zM434 284h272q10 0 16 -6.5t6 -16.5t-6 -16.5t-16 -6.5h-272
q-11 0 -17 6.5t-6 16.5q0 8 6.5 15.5t16.5 7.5v0v0zM297 533.5q0 -12.5 9 -21.5t21.5 -9t21.5 9t9 21.5t-9 21t-21.5 8.5t-21.5 -8.5t-9 -21zM297 397.5q0 -12.5 9 -21.5t21.5 -9t21.5 9t9 21.5t-9 21t-21.5 8.5t-21.5 -8.5t-9 -21zM297 261.5q0 -12.5 9 -21.5t21.5 -9
t21.5 9t9 21.5t-9 21t-21.5 8.5t-21.5 -8.5t-9 -21z" />
    <glyph glyph-name="gerenjianjie01" unicode="&#xe606;" 
d="M511 832q-91 0 -174 -35.5t-143 -95.5t-95.5 -143t-35.5 -174t35.5 -173.5t95.5 -142.5t143 -95.5t174 -35.5t174 35.5t142.5 95.5t95 142.5t35.5 173.5t-35.5 174t-95 143t-142.5 95.5t-174 35.5zM511 686v0v0q56 0 96 -40t40 -96t-40 -96t-96 -40t-96 40t-40 96t40 96
t96 40zM807 191q-2 -3 -5 -5q-124 -104 -286 -104t-287 104q-12 10 -13.5 26t8.5 28q2 3 5 5q125 104 287 104t286 -104q12 -10 13.5 -26t-8.5 -28z" />
    <glyph glyph-name="f" unicode="&#xe6c9;" 
d="M376 794q22 18 86 72q131 1 196 1q0 -18 0.5 -73t0.5 -73q-56 6 -90 -19t-46 -78q17 -1 68.5 -1.5t68.5 -1.5q-1 -20 -4 -78t-4 -77q-56 2 -111 4q4 -81 2.5 -183.5t-16.5 -182.5q-79 -6 -154 -27h-23q8 46 12.5 103.5t5.5 89.5t1 110v95q-10 -2 -40 -6.5t-40 -5.5v170
q48 -17 76 -26z" />
    <glyph glyph-name="moban12ziwopingjia" unicode="&#xe6da;" 
d="M512 835q-92 0 -175.5 -35.5t-144 -96t-96 -144t-35.5 -175.5t35.5 -175.5t96 -144t144 -96t175.5 -35.5t175.5 35.5t144 96t96 144t35.5 175.5t-35.5 175.5t-96 144t-144 96t-175.5 35.5zM768 281q0 -23 -16 -38.5t-38 -15.5v0h-146l-51 -76l-51 76h-156q-22 0 -38 15.5
t-16 38.5v0v283q0 22 16 37.5t38 15.5v0h404q22 0 38 -15.5t16 -37.5v0v-283zM714 591h-404q-11 0 -19 -8t-8 -19v-283q0 -11 8 -19t19 -8h155q13 -1 23 -11l29 -44q27 41 30 45q9 9 23 10h144q11 0 19 8t8 19v283q0 11 -8 19t-19 8zM470 340l-19 18v0l-48 48l19 19l48 -48
l133 133l18 -18z" />
    <glyph glyph-name="yingshi" unicode="&#xe6af;" 
d="M512 891q103 0 197 -40t162 -108t108 -162t40 -197t-40 -197t-108 -162t-162 -108t-197 -40t-197 40t-162 108t-108 162t-40 197t40 197t108 162t162 108t197 40zM512 470q27 0 46 19t19 46t-19 46t-46 19t-46 -19t-19 -46t19 -46t46 -19v0v0zM512 561q13 0 23 -9.5
t10 -23t-10 -23t-23 -9.5t-23 9.5t-10 23t10 23t23 9.5v0v0zM512 561zM577 262q0 27 -19 46t-46 19t-46 -19t-19 -46t19 -46t46 -19t46 19t19 46v0v0zM479 268q0 14 10 23.5t23 9.5t23 -9.5t10 -23t-10 -23t-23 -9.5t-23 9.5t-10 22.5v0v0zM479 268zM648 334q27 0 46 19.5
t19 46.5t-19 46t-46 19t-46 -19t-19 -46t19 -46.5t46 -19.5v0v0zM642 432q13 0 22.5 -9.5t9.5 -23t-9.5 -23t-23 -9.5t-23 9.5t-9.5 23t9.5 23t23.5 9.5v0v0zM642 432zM375 462q-27 0 -46 -19t-19 -46t19 -46t46 -19t46 19t19 46t-19 46t-46 19v0v0zM382 364q-14 0 -23.5 10
t-9.5 23.5t9.5 23t23 9.5t23 -9.5t9.5 -23t-9.5 -23.5t-22.5 -10v0v0zM382 364zM783 138h-138q41 21 74 54q40 40 62 93q23 54 23 113.5t-23 113.5q-22 53 -62.5 93.5t-92.5 62.5q-55 23 -114.5 23t-113.5 -23q-52 -22 -92.5 -62.5t-63.5 -93.5q-22 -54 -22 -113
q0 -60 23 -114q22 -53 62.5 -93.5t92.5 -62.5q55 -23 114 -23h5h1h265q7 0 11.5 4.5t4.5 11.5t-4.5 11.5t-11.5 4.5v0v0zM340 227q-33 34 -52 77q-19 45 -19 94.5t19 94.5q19 44 52.5 77.5t77.5 51.5q45 19 94 19t95 -19q43 -18 76.5 -51.5t52.5 -77.5q19 -45 19 -94.5
t-19 -94.5q-19 -43 -52.5 -77t-76.5 -52q-46 -19 -95 -19t-94 19q-44 18 -78 52v0v0zM340 227z" />
    <glyph glyph-name="icon-net2" unicode="&#xe600;" 
d="M427 683q-104 0 -192.5 -51.5t-140 -140t-51.5 -192.5t51.5 -192.5t140 -140t192.5 -51.5t192.5 51.5t140 140t51.5 192.5t-51.5 192.5t-140 140t-192.5 51.5zM309 619q-27 -34 -51 -88q-23 12 -47 32q48 38 98 56zM179 533q20 -19 62 -42q-24 -73 -28 -171h-128
q10 126 94 213zM87 277h128q3 -85 28 -170q-42 -23 -62 -43q-87 87 -94 213zM211 34q13 11 47 32q24 -53 51 -87q-50 17 -98 55zM405 -38q-65 15 -111 123q48 18 111 22v-145v0zM405 149q-69 -3 -123 -25q-21 71 -24 153h149v-128h-2zM405 320h-149q3 83 23 154
q58 -23 124 -26v-128h2zM405 491q-51 2 -111 21q44 105 111 124v-145zM642 563q-13 -10 -47 -32q-23 54 -51 88q50 -18 98 -56zM448 636q66 -16 111 -124q-48 -18 -111 -21v145zM448 448q70 3 124 26q20 -71 23 -154h-149v128h2zM448 277h149q-3 -82 -23 -153
q-58 22 -124 25v128h-2zM448 -38v145q51 -3 111 -22q-44 -107 -111 -123v0zM544 -21q28 34 51 87q23 -11 47 -32q-48 -38 -98 -55zM674 64q-19 20 -62 43q25 73 28 170h128q-10 -125 -94 -213v0zM640 320q-3 86 -28 171q43 23 62 42q88 -91 94 -213h-128zM597 853
q-91 0 -170 -39.5t-133 -109.5q48 16 101 19q-2 1 -6.5 4.5t-6.5 4.5q48 38 98 55q-15 -17 -41 -64q15 0 45 -4q40 72 94 85v-109q39 -16 43 -19v128q65 -15 111 -123q-39 -16 -83 -20q34 -21 49 -34q34 9 49 15q8 -25 17 -81q39 -49 62 -113h111q-7 -117 -90 -207
q-9 -51 -17 -75q70 54 109.5 133t39.5 170q1 104 -50 192.5t-139.5 140t-192.5 51.5zM715 789q50 -17 98 -55q-13 -11 -47 -32q-20 53 -51 87zM811 491q-3 85 -28 170q42 23 62 43q87 -91 94 -213h-128z" />
    <glyph glyph-name="youjiantou-copy" unicode="&#xe601;" 
d="M786 323q-7 -7 -21 -14l-412 -413q-24 -24 -58 -24t-58 24t-24 58t24 59l371 372l-371 371q-24 24 -24 58t24 58t58 24t58 -24l409 -409q15 -7 24 -16q25 -25 23 -62q2 -37 -23 -62z" />
    <glyph glyph-name="g" unicode="&#xe607;" 
d="M846 378h-105v-106q0 -6 -4.5 -10t-10.5 -4h-30q-6 0 -10 4t-4 10v106h-106q-6 0 -10 4t-4 10v30q0 6 4 10.5t10 4.5h106v105q0 6 4 10.5t10 4.5h30q6 0 10.5 -4.5t4.5 -10.5v-105h105q6 0 10.5 -4.5t4.5 -10.5v-30q1 -6 -3 -10t-12 -4v0zM531 634q-6 -4 -8 -4h-14
q30 -35 30 -92q0 -63 -57 -108q-21 -15 -26 -23t-5 -18q0 -5 14 -20t29 -25q39 -28 55 -57.5t16 -73.5q0 -47 -33.5 -84.5t-88.5 -53.5q-36 -9 -75 -9q-46 0 -85 9q-82 20 -109 69q-11 20 -11 43q0 26 11 47q22 45 73 72.5t113 27.5h2q-10 17 -10 37q0 7 3 19
q-65 2 -108.5 44.5t-43.5 104.5q0 45 32.5 84t82.5 55q37 12 61 12h186q8 0 14 -10q3 -11 -5 -16l-43 -30v0zM258 208q0 -36 31.5 -60.5t76.5 -24.5q120 0 120 82q0 11 -1 16q-2 10 -10.5 19.5t-16.5 15.5t-28 19q-2 2 -6 4.5t-6 3.5q-26 7 -40 7h-2q-47 0 -82.5 -25
t-35.5 -57v0zM442 533q-6 41 -32 71t-56 30h-2q-22 0 -37 -18q-25 -28 -17 -75q4 -41 31 -72t57 -31v0v0q20 0 38 18q25 28 18 77v0zM442 533z" />
    <glyph glyph-name="birdxiaoniao" unicode="&#xe736;" horiz-adv-x="1027" 
d="M1025 797q-50 -70 -104 -109v-26q0 -228 -162.5 -413t-435.5 -185q-176 0 -322 94q15 -3 49 -3q146 0 263 91q-68 3 -122 43q-55 40 -75 103q25 -5 39 -5q28 0 57 7q-73 13 -121 72t-48 134v5q52 -29 93 -29q-91 63 -91 177q0 60 26 104q169 -205 434 -218q-5 31 -5 46
q0 89 61 150t150 61q93 0 153 -65q73 16 133 49q-24 -75 -91 -114q60 8 119 31z" />
    <glyph glyph-name="zuopin" unicode="&#xe624;" 
d="M957 745v-636q0 -31 -20 -55t-50 -30v61q21 17 21 52v580q0 31 -17 48.5t-49 17.5h-580q-33 0 -51 -19h-62q7 29 30.5 48.5t54.5 19.5h636q36 0 61.5 -25.5t25.5 -61.5zM826 638v-580q0 -32 -17 -49t-49 -17h-580q-31 0 -48.5 17t-17.5 49v580q0 31 17.5 48.5t48.5 17.5
h580q32 0 49 -17.5t17 -48.5zM759 73q9 9 6.5 21.5t-22.5 25.5l-153 107l84 84l40 -33q5 -5 18.5 -3.5t20.5 10.5q7 10 6 22.5t-7 16.5l-63 51q-1 1 -3 2q-19 11 -34 -4l-112 -111l-183 128l-10 6q-7 5 -15 5q-8 1 -14 -2q-4 -2 -8 -5l-130 -131q-9 -8 -8.5 -20t9.5 -21
t21 -9t20 8l112 112l190 -132q3 -3 6 -5l179 -125q23 -13 32 -11.5t18 13.5zM601 533.5q0 28.5 -20 48.5t-48 20t-48 -20t-20 -48.5t20 -48t48 -19.5t48 19.5t20 48z" />
    <glyph glyph-name="zhuanye" unicode="&#xe7d6;" 
d="M455 275l-55 195v6l-5 18l-127 -39l82 -295l127 40l-19 70q-3 2 -3 5zM740 525v0h-11q-106 0 -128 24q-7 8 -7 18q0 13 1 28q0 3 2 14q2 13 2 19q5 64 -17 89q-5 5 -8 5q-7 0 -16.5 -2.5t-10.5 -5.5q6 -60 -7 -106q-15 -29 -49 -70t-63 -68l49 -176q17 3 38 3q17 0 38 -2
l40 -4q50 -4 66 -6q9 -1 16 -1q31 0 36 14q2 6 3 11q0 9 8 11q23 9 25 35q0 4 -1 9q-1 9 6 13q17 11 18 31q1 9 -2.5 18t2.5 15q15 15 15 36q1 20 -12.5 34t-32.5 14zM512 896q-139 0 -257 -68.5t-186.5 -186.5t-68.5 -257t68.5 -257t186.5 -186.5t257 -68.5t257 68.5
t186.5 186.5t68.5 257t-68.5 257t-186.5 186.5t-257 68.5zM796 407q-2 -29 -24 -48v-6q-2 -37 -34 -55q-2 -5 -3 -9q-11 -32 -60 -32q-9 0 -19 1q-16 2 -65 7l-40 3q-39 4 -67 0l21 -74q1 -5 -1.5 -10t-7.5 -6l-151 -47q-2 -1 -4 -1q-9 0 -12 10l-89 320q-4 13 8 16l152 48
q5 1 9.5 -1.5t6.5 -7.5l4 -16q27 26 56 61t41 58q11 40 5 93q-1 12 7 22q14 16 45 16q14 0 27 -14q29 -34 23 -109q0 -7 -2 -21q-1 -7 -2 -12q-1 -15 -1 -26q2 -3 13.5 -6.5t37 -6.5t59.5 -3h11q29 0 50 -21.5t21 -52.5q0 -28 -18 -49q3 -11 3 -21z" />
    <glyph glyph-name="in" unicode="&#xe631;" 
d="M351 65h-136v456h136v-456zM852 65h-137v244q0 94 -67 94q-52 0 -69 -53v-285h-137q2 410 0 456h108l8 -91h3q47 76 134 76q73 0 113 -46q44 -49 44 -138v-257zM354 634.5q0 -28.5 -21 -48.5t-50 -20t-50 20t-21 48.5t21 48.5t50 20t50 -20t21 -48.5z" />
    <glyph glyph-name="jineng" unicode="&#xe63d;" 
d="M369 17q144 39 252 139.5t151 221.5q-49 29 -104 44q-45 -134 -153 -226t-253 -115q48 -40 107 -64zM425 422q29 -81 87 -147q66 69 98 159q-94 14 -185 -12zM469 235q-91 103 -119 235.5t19 276.5q-61 -24 -112 -68q-26 -138 9 -267.5t118 -230.5q48 24 85 54zM907 382
q0 47 -12 97q-111 80 -242.5 105t-254.5 -7v-0.5v-0.5q0 -48 11 -97q87 22 173 17.5t170.5 -42t153.5 -103.5q1 20 1 31zM403 639q239 51 456 -68q-51 93 -143 148.5t-202 55.5q-35 0 -73 -7q-29 -64 -38 -129zM822 345q-43 -110 -135 -205.5t-214 -148.5
q145 -15 263.5 67.5t156.5 219.5q-33 39 -71 67zM328 158q-73 93 -110 207t-30 236q-67 -99 -67 -219q0 -139 88 -248q62 4 119 24z" />
    <glyph glyph-name="3-copy-copy" unicode="&#xe602;" 
d="M903 420q-148 -32 -189 -43q-17 -5 -40 12t-41.5 38t-22.5 22q-2 -6 -22.5 -62.5t-30.5 -86.5q23 1 92 -23t72 -40l68 -283q1 -2 2.5 -6t2 -14.5t-3 -20t-16 -19.5t-33.5 -16q-23 -7 -37.5 -3.5t-23 9t-12.5 15.5t-5 14.5t-1 6.5q-52 198 -57 210q-3 9 -55.5 20t-69.5 7
q-9 -3 -29 -47.5t-44.5 -90t-45.5 -50.5q-17 -4 -49 5t-61.5 22t-64 31t-47 25t-19.5 12v0q-3 0 -7.5 2t-16 8.5t-19.5 15t-13 24t-0.5 34t14.5 30.5t21.5 15.5t22.5 4.5t18 -0.5l7 -1.5q2 -1 4.5 -2.5t11.5 -6t17.5 -9t21 -11t22.5 -11t22 -10t19.5 -8t15 -4.5t8.5 0
q7 4 13 19t15 41t17 44q1 8 13.5 47t25 75l12.5 36l17 71q5 26 0 28q-20 11 -40 -23q-47 -81 -96 -149q-14 -19 -33 -26t-34.5 -1t-28 18t-13.5 30.5t8 36.5q2 3 16 28t21.5 37.5t23.5 38.5t27.5 42.5t26.5 36t28.5 31.5t25.5 18q47 23 112.5 30.5t132.5 -6.5
q29 -6 59 -26.5t48.5 -40.5t35 -40t20.5 -23q7 -5 40.5 1t62.5 16l29 9q3 0 7.5 1.5t17 2t22.5 -2t20.5 -12.5t15.5 -27q4 -18 0.5 -31t-12.5 -21.5t-18 -13.5t-16 -7l-8 -2v0v0zM632 668q-45 -12 -85.5 11t-53 68t11 85.5t69 52.5t86 -11t53 -68t-11 -85.5t-69.5 -52.5v0v0
zM632 668z" />
    <glyph glyph-name="zuoyezhanshishu" unicode="&#xe64e;" 
d="M666 568h-310q-7 0 -11.5 -1t-10.5 -8t-6 -19v-254q35 32 49 46t31 14q16 -1 28 -13q38 -34 58 -53q7 -8 13 -2l30 26q8 10 24 10q15 1 29 -13q16 -16 91 -95q6 3 9 9t4 10v5v310q0 28 -28 28zM584 366q-30 0 -51.5 21.5t-21.5 51.5t21.5 51.5t51.5 21.5t51 -21.5
t21 -51.5t-21 -51.5t-51 -21.5zM568 279q13 -12 75 -77h-285q-14 0 -21.5 7t-8.5 14v8v13q52 47 70 66q6 5 9 5t7 -3v0l1 -1q36 -32 57 -53q12 -12 30 -13q7 0 13.5 2.5t9.5 5t3 3.5l30 25q4 4 10 -2zM626 438.5q0 -17.5 -12.5 -29.5t-30 -12t-29.5 12t-12 29.5t12 30
t29.5 12.5t30 -12.5t12.5 -30zM512 828q-90 0 -172.5 -35.5t-141.5 -94.5t-94.5 -141.5t-35.5 -172.5t35.5 -172.5t94.5 -141.5t141.5 -94.5t172.5 -35.5t172.5 35.5t141.5 94.5t94.5 141.5t35.5 172.5t-35.5 172.5t-94.5 141.5t-141.5 94.5t-172.5 35.5zM727 226
q0 -21 -13 -37l-1 -2q-2 -3 -5 -5q-1 0 -2 -1q-14 -12 -36 -12h-316q-2 0 -6 0.5t-13.5 3.5t-17.5 8.5t-14 17t-6 27.5v316q0 19 7.5 32t19 18t18 6t12.5 1h316q6 0 12.5 -1t18 -6t19 -18t7.5 -32v-316z" />
    <glyph glyph-name="chuanweiappjibenqingkuang-copy" unicode="&#xe644;" 
d="M910 775q0 24 -17 40t-41 16h-680q-24 0 -41 -16t-17 -40v-782q0 -24 17 -40t41 -16h680q24 0 41 16t17 40v782zM753 691q24 0 41 -16.5t17 -39.5t-17 -39.5t-41 -16.5t-41 16.5t-17 39.5t17 39.5t41 16.5v0zM724 320q0 -17 -10 -30t-24 -13h-395q-14 0 -24 13t-10 30.5
t10 30t24 12.5h395q14 0 24 -12.5t10 -30.5v0zM521 691q25 0 42 -16.5t17 -39.5t-17 -39.5t-41.5 -16.5t-41.5 16.5t-17 39.5t17 39.5t41 16.5v0zM232 635q0 23 17 39.5t41 16.5t41 -16.5t17 -39.5t-17 -39.5t-41 -16.5t-41 16.5t-17 39.5v0zM738 107h-434q-18 0 -30.5 12.5
t-12.5 30t12.5 30t30.5 12.5h434q18 0 30.5 -12.5t12.5 -30t-12.5 -30t-30.5 -12.5v0zM738 107z" />
    <glyph glyph-name="xingming" unicode="&#xe61e;" 
d="M877 50v0q117 127 129 298v2v10q0 1 0.5 2.5t0.5 2.5v7v12q0 99 -37.5 189.5t-107.5 160.5t-160.5 107.5t-189.5 37.5t-189.5 -37.5t-160.5 -107.5t-107.5 -160.5t-37.5 -189.5v-12v-3.5v-3.5v-2.5v-2.5q1 -5 1 -9v-2q13 -178 136 -307l18 -18v1q69 -66 156.5 -101
t183.5 -35q94 0 180.5 34t155.5 97v-1l21 22v0q4 4 8 9zM186 710q65 65 149.5 100t176.5 35t176.5 -35t149.5 -100t100 -149.5t35 -176.5v-11v-2v-2t-0.5 -3.5t-0.5 -3.5v-5v-2.5v-2.5l-1 -6v-2.5v-2.5t-0.5 -3t-0.5 -4v-1v-2q0 -2 -1 -8v-0.5v-0.5q-18 -133 -105 -236
q-35 89 -121 148q-58 39 -130 57q43 26 68 69.5t25 95.5q0 79 -56 135.5t-135.5 56.5t-135.5 -56.5t-56 -135.5q0 -51 24 -94t66 -69q-74 -17 -135 -58q-85 -57 -121 -145q-88 107 -103 243v0.5v0.5q0 2 -0.5 4.5t-0.5 3.5v2v1q-1 2 -1 4v3v2.5v2.5t-0.5 3t-0.5 3v6v2.5v1.5
v5.5v5.5q0 92 35 176.5t100 149.5z" />
    <glyph glyph-name="jineng1" unicode="&#xe60d;" 
d="M255 831h514q74 0 126.5 -52t52.5 -127v-536q0 -75 -52.5 -127t-126.5 -52h-514q-74 0 -126.5 52t-52.5 127v536q0 75 52.5 127t126.5 52zM464 111q-32 0 -54 2t-46 8t-38 20t-18 35q-3 11 -2 29q-28 25 -30 58v6q-1 4 -1 6q-15 23 -14 55q1 23 14 39q0 6 1 18v10
q1 36 24.5 60.5t55.5 24.5h73h11q-8 32 -12 51t-4 46t9 43q15 26 78 26q24 0 34 -7t17 -26l2 -6q33 -85 74.5 -131t72.5 -46q8 0 25 -9t21 -17q19 -30 19 -109q0 -46 -15 -99t-35 -53h-3h-9h-2q-73 -6 -83 -13q-17 -14 -42 -17.5t-123 -3.5zM706 191h2q22 48 22 109
q0 60 -11 84q-9 6 -17 9q-45 1 -92 53.5t-81 139.5l-2 7l-2 6q-3 2 -15 2q-38 0 -43 -7q-12 -21 11 -107q4 -18 6 -23l5 -23h-23h-34h-69q-19 0 -30 -14t-12 -32v-11q-1 -11 -1 -13l5 -11l-9 -9q-9 -10 -9 -20q-1 -22 10 -34l7 -9l-3 -10v-9q1 -18 23 -34l8 -6l-1 -11
q-2 -16 0 -26q3 -16 27.5 -24.5t88.5 -8.5q86 0 106.5 2t30.5 10q17 14 98 20h4v0z" />
    <glyph glyph-name="rider" unicode="&#xe62c;" 
d="M625 415h1l191 -1l0.5 0.5l0.5 0.5v62q0 1 -1 1h-139l-73 182q0 1 -1 1q-6 13 -16 23q-25 25 -59 25t-59 -25l-188 -187q-24 -25 -24 -59t24 -59q6 -6 13 -10q0 -1 1 -2l175 -93v-204v0h77h0.5h0.5l-2 264v1l-111 80l120 115zM657 690q38 0 64.5 27t26.5 65t-26.5 65
t-64.5 27t-65 -27t-27 -65t27 -65t65 -27zM222 292q-82 0 -140.5 -58.5t-58.5 -140.5t58.5 -140.5t140.5 -58.5t140.5 58.5t58.5 140.5t-58.5 140.5t-140.5 58.5zM221.5 -22q-47.5 0 -81.5 33.5t-34 81.5t34 81.5t81.5 33.5t81.5 -33.5t34 -81.5t-34 -81.5t-81.5 -33.5z
M802 292q-82 0 -140.5 -58.5t-58.5 -140.5t58.5 -140.5t140.5 -58.5t140.5 58.5t58.5 140.5t-58.5 140.5t-140.5 58.5zM802.5 -22q-47.5 0 -81.5 33.5t-34 81.5t34 81.5t81.5 33.5t81.5 -33.5t34 -81.5t-34 -81.5t-81.5 -33.5z" />
  </font>
</defs>
</svg>
